<?xml version="1.0" encoding="UTF-8"?>
<svg width="24px" height="24px" viewBox="0 0 24 24" version="1.1" xmlns="http://www.w3.org/2000/svg" xmlns:xlink="http://www.w3.org/1999/xlink">
    <title>icon</title>
    <g id="Light" stroke="none" stroke-width="1" fill="none" fill-rule="evenodd">
        <g id="Components" transform="translate(-463.000000, -48.000000)">
            <g id="Group-6" transform="translate(405.000000, 16.000000)">
                <g id="icon" transform="translate(58.000000, 32.000000)">
                    <path d="M5.53846154,2.30769231 L12,5 L12,5 L18.4615385,2.30769231 C20.5007437,1.45802346 22.8426388,2.42233323 23.6923077,4.46153846 C23.8954246,4.94901914 24,5.47189593 24,6 L24,18 C24,20.209139 22.209139,22 20,22 C19.4718959,22 18.9490191,21.8954246 18.4615385,21.6923077 L12,19 L12,19 L5.53846154,21.6923077 C3.49925631,22.5419765 1.15736115,21.5776668 0.307692308,19.5384615 C0.104575357,19.0509809 1.84103094e-15,18.5281041 0,18 L0,6 C1.50581534e-15,3.790861 1.790861,2 4,2 C4.52810407,2 5.05098086,2.10457536 5.53846154,2.30769231 Z" id="Rectangle" fill="#3772FF"></path>
                    <path d="M5,14.7636365 C5,15.2727274 5.31284915,15.7818182 5.78212292,16 L11.2569834,18.8363634 C11.7262571,19.0545452 12.2737429,19.0545452 12.7430166,18.8363634 L18.2178771,16 C18.6871508,15.7090909 19,15.2727274 19,14.7636365 L19,9.2363635 C19,8.7272726 18.6871508,8.21818183 18.2178771,8 L12.7430166,5.16363637 C12.2737429,4.94545454 11.7262571,4.94545454 11.2569834,5.16363637 L5.78212292,7.9272728 C5.31284915,8.21818189 5,8.7272726 5,9.2363635 L5,14.7636365 Z" id="Vector" stroke="#FFFFFF" stroke-width="1.5" stroke-linecap="round" stroke-linejoin="round" stroke-dasharray="0,0" fill-rule="nonzero"></path>
                </g>
            </g>
        </g>
    </g>
</svg>