<?xml version="1.0" encoding="UTF-8"?>
<svg width="251px" height="48px" viewBox="0 0 251 48" version="1.1" xmlns="http://www.w3.org/2000/svg" xmlns:xlink="http://www.w3.org/1999/xlink">
    <title>koinbox</title>
    <g id="Light" stroke="none" stroke-width="1" fill="none" fill-rule="evenodd">
        <g id="+Kunye" transform="translate(-1235.000000, -249.000000)">
            <g id="koinbox" transform="translate(1235.000000, 249.000000)">
                <path d="M74.2739543,6.97220957 L67,6.97220957 L67,41.4943052 L74.2739543,41.4943052 L74.2728615,33.2744504 L76.2442739,31.0533491 L83.3920097,41.4943052 L91.9124397,41.4943052 L81.687696,26.8188185 L91.4172644,15.6027335 L83.0675845,15.6027335 L74.6666795,25.4300683 L74.2728615,25.430383 L74.2739543,6.97220957 Z M106.81202,42 C109.464338,42 111.755236,41.4409263 113.684712,40.322779 C115.614188,39.2046317 117.10256,37.6425968 118.149827,35.6366743 C119.197094,33.6307517 119.720728,31.3017464 119.720728,28.6496583 C119.720728,25.9750949 119.197094,23.6348519 118.149827,21.6289294 C117.10256,19.6230068 115.614188,18.0609719 113.684712,16.9428246 C111.755236,15.8246773 109.464338,15.2656036 106.81202,15.2656036 C104.159702,15.2656036 101.868805,15.8246773 99.9393286,16.9428246 C98.0098524,18.0609719 96.5214807,19.6230068 95.4742134,21.6289294 C94.4269461,23.6348519 93.9033125,25.9750949 93.9033125,28.6496583 C93.9033125,31.3017464 94.4269461,33.6307517 95.4742134,35.6366743 C96.5214807,37.6425968 98.0098524,39.2046317 99.9393286,40.322779 C101.868805,41.4409263 104.159702,42 106.81202,42 Z M106.84617,36.4373576 C105.628153,36.4373576 104.606498,36.0974184 103.781206,35.4175399 C102.955914,34.7376614 102.335522,33.8077449 101.92003,32.6277904 C101.504538,31.447836 101.296792,30.1049355 101.296792,28.5990888 C101.296792,27.0932422 101.504538,25.7503417 101.92003,24.5703872 C102.335522,23.3904328 102.955914,22.4577069 103.781206,21.7722096 C104.606498,21.0867122 105.628153,20.7439636 106.84617,20.7439636 C108.052804,20.7439636 109.06023,21.0867122 109.868447,21.7722096 C110.676664,22.4577069 111.288519,23.3904328 111.70401,24.5703872 C112.119502,25.7503417 112.327248,27.0932422 112.327248,28.5990888 C112.327248,30.1049355 112.119502,31.447836 111.70401,32.6277904 C111.288519,33.8077449 110.676664,34.7376614 109.868447,35.4175399 C109.06023,36.0974184 108.052804,36.4373576 106.84617,36.4373576 Z M128.138674,12.2651481 C129.220092,12.2651481 130.144988,11.9083523 130.913363,11.1947608 C131.681739,10.4811693 132.065927,9.62429765 132.065927,8.62414579 C132.065927,7.63523159 131.681739,6.78397874 130.913363,6.07038724 C130.144988,5.35679575 129.2144,5 128.121599,5 C127.051565,5 126.129515,5.35679575 125.355448,6.07038724 C124.581381,6.78397874 124.194347,7.63523159 124.194347,8.62414579 C124.194347,9.62429765 124.581381,10.4811693 125.355448,11.1947608 C126.129515,11.9083523 127.057257,12.2651481 128.138674,12.2651481 Z M131.741501,41.4943052 L131.741501,15.6027335 L124.467547,15.6027335 L124.467547,41.4943052 L131.741501,41.4943052 Z M144.827721,41.4943052 L144.827721,26.5257403 C144.839104,25.4132118 145.052542,24.46082 145.468034,23.6685649 C145.883526,22.8763098 146.464076,22.2722855 147.209685,21.856492 C147.955293,21.4406986 148.817581,21.2328018 149.796549,21.2328018 C151.253616,21.2328018 152.397642,21.6794989 153.228626,22.5728929 C154.05961,23.466287 154.46941,24.7052392 154.458026,26.2897494 L154.458026,26.2897494 L154.458026,41.4943052 L161.731981,41.4943052 L161.731981,25.008656 C161.731981,22.9971147 161.356331,21.2637054 160.60503,19.8084282 C159.85373,18.3531511 158.800771,17.2321944 157.446153,16.4455581 C156.091536,15.6589218 154.50356,15.2656036 152.682225,15.2656036 C150.735674,15.2656036 149.079398,15.7066819 147.713398,16.5888383 C146.347397,17.4709947 145.374121,18.6649962 144.793571,20.1708428 L144.793571,20.1708428 L144.486221,20.1708428 L144.486221,15.6027335 L137.553767,15.6027335 L137.553767,41.4943052 L144.827721,41.4943052 Z M182.532686,41.9157175 C184.524771,41.9157175 186.326184,41.4072134 187.936927,40.390205 C189.54767,39.3731967 190.822604,37.8729689 191.761729,35.8895216 C192.700855,33.9060744 193.170418,31.4703113 193.170418,28.5822323 C193.170418,25.6154897 192.686626,23.1460137 191.719042,21.1738041 C190.751458,19.2015945 189.459449,17.7238421 187.843014,16.7405467 C186.22658,15.7572513 184.462162,15.2656036 182.549761,15.2656036 C181.08131,15.2656036 179.854756,15.5100228 178.870097,15.998861 C177.885438,16.4876993 177.088604,17.094533 176.479595,17.8193622 C175.870587,18.5441913 175.406715,19.2549734 175.087982,19.9517084 L175.087982,19.9517084 L174.866007,19.9517084 L174.866007,6.97220957 L167.592053,6.97220957 L167.592053,41.4943052 L174.763557,41.4943052 L174.763557,37.3476082 L175.087982,37.3476082 C175.418099,38.0668185 175.896199,38.7776006 176.522283,39.4799544 C177.148366,40.1823083 177.953738,40.7638573 178.938397,41.2246014 C179.923056,41.6853455 181.121152,41.9157175 182.532686,41.9157175 Z M180.22756,36.2013667 C179.055076,36.2013667 178.059034,35.8839028 177.239433,35.2489749 C176.419833,34.6140471 175.793749,33.7234624 175.361182,32.577221 C174.928615,31.4309795 174.712332,30.088079 174.712332,28.5485194 C174.712332,27.0089598 174.928615,25.6716781 175.361182,24.5366743 C175.793749,23.4016705 176.416987,22.5251329 177.230896,21.9070615 C178.044805,21.2889901 179.043693,20.9799544 180.22756,20.9799544 C181.422811,20.9799544 182.430236,21.3002278 183.249837,21.9407745 C184.069437,22.5813212 184.689829,23.4690964 185.111013,24.6041002 C185.532196,25.739104 185.742788,27.0539104 185.742788,28.5485194 C185.742788,30.054366 185.529351,31.3832194 185.102475,32.5350797 C184.6756,33.68694 184.052362,34.5859529 183.232762,35.2321185 C182.413161,35.878284 181.411427,36.2013667 180.22756,36.2013667 Z M209.849259,42 C212.501577,42 214.792475,41.4409263 216.721951,40.322779 C218.651427,39.2046317 220.139798,37.6425968 221.187066,35.6366743 C222.234333,33.6307517 222.757967,31.3017464 222.757967,28.6496583 C222.757967,25.9750949 222.234333,23.6348519 221.187066,21.6289294 C220.139798,19.6230068 218.651427,18.0609719 216.721951,16.9428246 C214.792475,15.8246773 212.501577,15.2656036 209.849259,15.2656036 C207.196941,15.2656036 204.906044,15.8246773 202.976568,16.9428246 C201.047091,18.0609719 199.55872,19.6230068 198.511452,21.6289294 C197.464185,23.6348519 196.940551,25.9750949 196.940551,28.6496583 C196.940551,31.3017464 197.464185,33.6307517 198.511452,35.6366743 C199.55872,37.6425968 201.047091,39.2046317 202.976568,40.322779 C204.906044,41.4409263 207.196941,42 209.849259,42 Z M209.883409,36.4373576 C208.665392,36.4373576 207.643737,36.0974184 206.818445,35.4175399 C205.993153,34.7376614 205.372761,33.8077449 204.957269,32.6277904 C204.541777,31.447836 204.334031,30.1049355 204.334031,28.5990888 C204.334031,27.0932422 204.541777,25.7503417 204.957269,24.5703872 C205.372761,23.3904328 205.993153,22.4577069 206.818445,21.7722096 C207.643737,21.0867122 208.665392,20.7439636 209.883409,20.7439636 C211.090043,20.7439636 212.097469,21.0867122 212.905686,21.7722096 C213.713903,22.4577069 214.325758,23.3904328 214.741249,24.5703872 C215.156741,25.7503417 215.364487,27.0932422 215.364487,28.5990888 C215.364487,30.1049355 215.156741,31.447836 214.741249,32.6277904 C214.325758,33.8077449 213.713903,34.7376614 212.905686,35.4175399 C212.097469,36.0974184 211.090043,36.4373576 209.883409,36.4373576 Z M233.31029,41.4943052 L238.398643,32.543508 L243.572371,41.4943052 L251,41.4943052 L243.19672,28.5485194 L250.7951,15.6027335 L243.33332,15.6027335 L238.398643,24.6546697 L233.58349,15.6027335 L226.070485,15.6027335 L233.58349,28.5485194 L225.797285,41.4943052 L233.31029,41.4943052 Z" fill="#18203F" fill-rule="nonzero"></path>
                <path d="M5.53846154,2.30769231 L24,10 L24,10 L42.4615385,2.30769231 C44.5007437,1.45802346 46.8426388,2.42233323 47.6923077,4.46153846 C47.8954246,4.94901914 48,5.47189593 48,6 L48,42 C48,44.209139 46.209139,46 44,46 C43.4718959,46 42.9490191,45.8954246 42.4615385,45.6923077 L24,38 L24,38 L5.53846154,45.6923077 C3.49925631,46.5419765 1.15736115,45.5776668 0.307692308,43.5384615 C0.104575357,43.0509809 2.72920936e-15,42.5281041 0,42 L0,6 C1.50581534e-15,3.790861 1.790861,2 4,2 C4.52810407,2 5.05098086,2.10457536 5.53846154,2.30769231 Z" id="Rectangle" fill="#3772FF"></path>
                <path d="M22.3815733,8.46372231 L11.3883026,14.0133495 L11.2739161,14.0775276 C9.89951844,14.9297264 9,16.4236958 9,17.9714864 L9,29.0285141 C9,30.5294468 9.84437162,31.9757926 11.1460604,32.714949 L22.3239614,38.507971 C23.7211061,39.1592133 25.2788939,39.1592133 26.6184267,38.5362777 L37.6257595,32.8339708 C39.1222301,31.9113019 40,30.5700813 40,29.0285141 L40,17.9714864 C40,16.4705537 39.1556284,15.024208 37.8539396,14.2850516 L26.6760387,8.49202901 C25.2788939,7.84078673 23.7211061,7.84078673 22.3815733,8.46372231 Z M25.3536398,11.1846848 L36.2457487,16.8303789 C36.6995047,17.0429082 37,17.5220241 37,17.9714864 L37,29.0285141 C37,29.440632 36.717939,29.8716174 36.1454244,30.2266065 L25.2960279,35.8436218 C24.8160775,36.0653028 24.1839225,36.0653028 23.6463602,35.8153152 L12.7542512,30.1696216 C12.3004953,29.9570924 12,29.4779765 12,29.0285141 L12,17.9714864 L12.0152825,17.792609 C12.0758614,17.4294956 12.3132142,17.0415005 12.667793,16.7594801 L12.822,16.6484625 L23.6899099,11.1635713 C24.1839225,10.9346972 24.8160775,10.9346972 25.3536398,11.1846848 Z" id="Vector" fill="#FFFFFF" fill-rule="nonzero"></path>
            </g>
        </g>
    </g>
</svg>